<?xml version="1.0" encoding="iso-8859-1"?>
<!-- Uploaded to: SVG Repo, www.svgrepo.com, Generator: SVG Repo Mixer Tools -->
<svg fill="#000000" height="800px" width="800px" version="1.1" id="Layer_1" xmlns="http://www.w3.org/2000/svg" xmlns:xlink="http://www.w3.org/1999/xlink" 
	 viewBox="0 0 512 512" xml:space="preserve">
<g transform="translate(1 1)">
	<g>
		<g>
			<path d="M433.773,319c-8.533-58.027-23.04-104.96-43.52-137.387c-1.707-1.707-2.56-3.413-5.12-5.973
				c-3.133-3.133-6.977-6.985-10.228-10.896c-0.003-0.067-0.012-0.127-0.012-0.197c-3.248-5.197-12.927-15.834-23.763-25.511
				c-3.159-2.958-6.383-5.88-9.517-8.623l-5.973-60.587C330.52,29.72,295.533-1,254.573-1c-40.96,0-75.947,30.72-81.067,70.827
				l-5.87,61.22c-0.031,0.076-0.074,0.142-0.103,0.22c-12.416,11.64-26.24,24.689-31.211,32.093
				c-0.121,0.11-0.244,0.216-0.362,0.334c-3.413,4.267-7.68,7.68-11.093,11.947c-1.707,2.56-3.413,4.267-4.267,5.12
				C99.267,214.04,84.76,260.973,76.227,319c-8.533,58.027-11.093,118.613-9.387,171.52c0,3.035,0,5.395,0,7.68
				c0,0.285,0,0.569,0,0.853c0,1.159,0,1.921,0,2.56c0,0.302,0,0.579,0,0.853c0,4.267,4.267,7.68,8.533,7.68h34.133
				c3.413,0,6.827-1.707,7.68-5.12l18.711-45.164l0.062-0.062c0-0.027-0.003-0.053-0.003-0.08l3.342-8.068
				c1.411,1.327,2.86,2.602,4.341,3.831v38.45c0,9.387,7.68,17.067,17.067,17.067H348.44c9.387,0,17.067-7.68,17.067-17.067V456.42
				c1.812-1.461,3.567-2.996,5.263-4.602l16.221,39.153l4.969,14.908c1.707,3.413,4.267,5.12,7.68,5.12h34.133
				c2.273,0,4.539-0.976,6.167-2.655c1.901-1.405,3.22-3.508,3.22-5.878c0-0.853,0-1.707,0-3.413c0-2.56,0-5.12,0-8.533
				C444.867,437.613,442.307,377.027,433.773,319z M191.708,355.571c-1.058,9.688-2.376,19.165-3.927,28.375l-44.994,17.828
				c-0.056-0.778-0.098-1.543-0.147-2.314c-0.274-9.605-0.506-18.887-0.699-27.849c-0.002-1.04-0.005-2.091-0.006-3.118
				l50.345-19.626C192.12,351.104,191.922,353.339,191.708,355.571z M143.64,430.787c-0.137-3.9-0.268-7.751-0.393-11.557
				l40.829-15.878c-3.802,17.735-8.51,34.176-13.983,48.768C159.853,447,150.467,440.173,143.64,430.787z M193.893,329.593
				l-52.343,20.679c-0.194-12.815-0.3-24.917-0.323-36.324c0.104-52.397,1.939-90.68,4.973-116.975
				c0.853-8.533,1.707-15.36,3.413-19.627c0.412-1.237,0.824-2.671,1.14-3.825c1.666-2.339,5.328-6.376,9.953-11.016V229.4
				c0,5.12,3.413,8.533,8.533,8.533c5.12,0,8.533-3.413,8.533-8.533v-65.526c10.973,38.406,17.067,84.404,17.067,133.793
				C194.84,308.422,194.516,319.089,193.893,329.593z M125.459,406.997l-40.537,16.046c0.387-10.99,0.946-22.101,1.687-33.273
				l38.064-15.226C124.877,384.953,125.138,395.77,125.459,406.997z M84.414,442.238l41.631-16.291
				c0.165,4.952,0.34,9.976,0.528,15.079l-4.294,10.24H84.293C84.318,448.274,84.362,445.26,84.414,442.238z M411.587,295.107
				l-25.748,9.967c-0.025-11.486-0.136-22.243-0.326-32.302l19.248-7.532C407.32,274.627,409.88,284.867,411.587,295.107z
				 M331.373,165.629V229.4c0,5.12,3.413,8.533,8.533,8.533s8.533-3.413,8.533-8.533v-67.747
				c5.487,5.447,9.942,10.326,11.947,13.133c0,0,0.042,0.044,0.099,0.108c0.236,0.816,0.495,1.673,0.754,2.452
				c0.853,4.267,1.707,11.093,3.413,19.627c1.747,15.141,3.096,34.26,3.947,57.722c0.051,1.799,0.099,3.63,0.144,5.484
				l-54.223,21.559C315.668,239.125,321.418,199.079,331.373,165.629z M314.319,300.222l53.747-21.328c0,10.24,0,21.333,0,32.427
				l-52.639,21.225C314.745,321.96,314.37,311.167,314.319,300.222z M369.176,329.255c-0.221,29.738-0.875,63.76-1.963,102.385
				c-3.883,4.746-8.204,8.836-12.85,12.384c-0.852,0.28-1.697,0.689-2.51,1.27c-3.778,2.77-7.858,5.158-12.143,7.163
				c-11.181-29.006-19.085-64.123-22.869-102.526L369.176,329.255z M382.573,441.027c0.047-1.278,0.092-2.545,0.137-3.813
				c0.417-1.005,0.716-2.009,0.716-3.014c1.454-42.161,2.214-78.867,2.382-110.602l29.267-11.257
				c0.56,3.321,1.104,6.677,1.631,10.072c6.455,43.25,8.999,87.959,9.119,129.707h-38.6L382.573,441.027z M425.24,493.933h-19.627
				l-10.24-25.6h30.373c-0.094,7.815-0.259,15.515-0.506,23.04C425.24,492.227,425.24,493.08,425.24,493.933z M400.442,248.365
				l-15.383,6.153c-0.62-19.775-1.592-36.384-2.856-50.096C389.27,216.943,395.285,231.72,400.442,248.365z M254.573,16.067
				c32.427,0,59.733,23.893,64,56.32l5.689,61.765c-16.867,43.144-26.619,99.42-27.003,159.81c-0.003,0.099-0.019,0.191-0.019,0.292
				v0.853c0,1.707,0,1.707,0,2.56c0,9.009,0.222,17.914,0.641,26.697c0.306,7.148,0.684,14.207,1.066,21.089
				c0.111,0.778,0.298,1.51,0.546,2.194c3.771,41.332,12.148,79.131,24.106,110.273c-5.559,1.232-11.264,1.88-16.972,1.88H203.373
				c-5.696,0-11.39-0.646-16.975-1.91c7.35-19.3,13.2-41.267,17.437-64.971c0.242-0.681,0.384-1.415,0.389-2.196
				c1.942-11.177,3.531-22.728,4.746-34.565c0.774-6.514,1.483-13.192,2.083-20.091c0-0.733-0.092-1.453-0.261-2.148
				c0.737-11.9,1.115-24.012,1.115-36.252c0-61.754-9.798-119.418-26.99-163.434l6.51-61.846
				C194.84,39.96,222.147,16.067,254.573,16.067z M127.961,202.693c-2.236,23.41-3.598,55.653-3.784,97.833
				c-0.142,17.192-0.087,35.984,0.2,56.471l-36.35,13.981c1.368-16.239,3.108-32.502,5.265-48.564
				C100.923,273.247,111.923,232.508,127.961,202.693z M84.76,493.933c0-0.853,0-1.707,0-2.56c0-0.988,0-2.085,0-3.413
				c0-5.973,0-12.8,0-19.627h30.362l-10.735,25.6H84.76z M348.44,493.933H160.707v-27.212c1.559,0.795,3.14,1.544,4.742,2.249
				c2.087,0.992,4.205,1.918,6.351,2.776c0.726,0.29,1.477,0.448,2.231,0.504c9.305,3.03,19.174,4.616,29.342,4.616h103.253
				c12.581,0,24.705-2.432,35.867-7.022c2.02-0.808,4.003-1.683,5.946-2.625V493.933z"/>
			<path d="M247.747,178.2H261.4c29.013,0,51.2-25.6,46.933-53.76l-6.827-50.347c-2.56-23.04-23.04-40.96-46.933-40.96
				s-44.373,17.92-46.933,40.96l-6.827,50.347C197.4,152.6,219.587,178.2,247.747,178.2z M217.88,127l6.827-50.347
				c1.707-15.36,14.507-26.453,29.867-26.453s28.16,11.093,29.867,26.453L291.267,127c2.56,17.92-11.947,34.133-29.867,34.133
				h-13.653C228.973,161.133,215.32,144.92,217.88,127z"/>
		</g>
	</g>
</g>
</svg>