<?xml version="1.0" encoding="iso-8859-1"?>
<!-- Uploaded to: SVG Repo, www.svgrepo.com, Generator: SVG Repo Mixer Tools -->
<svg fill="#000000" height="800px" width="800px" version="1.1" id="Layer_1" xmlns="http://www.w3.org/2000/svg" xmlns:xlink="http://www.w3.org/1999/xlink" 
	 viewBox="0 0 511.997 511.997" xml:space="preserve">
<g transform="translate(1 1)">
	<g>
		<path d="M357.399-1h-204.8c-4.713,0-8.533,3.82-8.533,8.533v34.131v0.003v59.731v110.936v34.133v51.2v187.731
			c0,14.142,11.458,25.6,25.6,25.6h43.11c13.876,0,25.23-11.059,25.589-24.927l7.646-290.59c0.131-4.866,4.118-8.749,8.989-8.749
			c4.87,0,8.857,3.883,8.989,8.755l7.646,290.588c0.358,13.864,11.713,24.923,25.589,24.923h43.11c14.142,0,25.6-11.458,25.6-25.6
			V297.667v-51.2v-34.133V101.397V41.667v-0.003V7.533C365.932,2.82,362.112-1,357.399-1z M331.799,255h17.067v34.133h-17.067V255z
			 M331.799,237.933v-17.067h17.067v17.067H331.799z M161.132,255h17.067v34.133h-17.067V255z M178.199,237.933h-17.067v-17.067
			h17.067V237.933z M161.132,50.2h34.133c-0.001,20.643-14.657,37.859-34.133,41.811V50.2z M348.865,50.2v41.811
			c-19.476-3.952-34.132-21.168-34.133-41.811H348.865z M348.865,16.067v17.064h-42.667h-51.2h-51.2h-42.667V16.067H348.865z
			 M228.95,195.025l-7.646,290.6c-0.119,4.619-3.904,8.305-8.528,8.305h-43.11c-4.716,0-8.533-3.817-8.533-8.533V306.2h25.6
			c4.713,0,8.533-3.82,8.533-8.533v-51.2v-34.133c0-4.713-3.82-8.533-8.533-8.533h-25.6v-94.486
			c28.947-4.141,51.199-29.022,51.2-59.114h34.133v120.895C236.493,174.551,229.25,183.898,228.95,195.025z M340.332,493.931h-43.11
			c-4.624,0-8.408-3.686-8.528-8.302l-7.646-290.598c-0.3-11.132-7.544-20.48-17.516-23.936V50.2h34.133
			c0.001,30.093,22.253,54.973,51.2,59.114V203.8h-25.6c-4.713,0-8.533,3.821-8.533,8.533v34.133v51.2
			c0,4.713,3.82,8.533,8.533,8.533h25.6v179.197C348.865,490.114,345.049,493.931,340.332,493.931z"/>
	</g>
</g>
</svg>